<svg id="visual" viewBox="0 0 1920 1080" width="1920" height="1080" xmlns="http://www.w3.org/2000/svg" xmlns:xlink="http://www.w3.org/1999/xlink" version="1.1"><path d="M0 217L21.3 222.3C42.7 227.7 85.3 238.3 128 242C170.7 245.7 213.3 242.3 256 240.7C298.7 239 341.3 239 384 251.5C426.7 264 469.3 289 512 285.3C554.7 281.7 597.3 249.3 640 254.8C682.7 260.3 725.3 303.7 768 314.5C810.7 325.3 853.3 303.7 896 278.3C938.7 253 981.3 224 1024 215C1066.7 206 1109.3 217 1152 231.5C1194.7 246 1237.3 264 1280 273C1322.7 282 1365.3 282 1408 285.5C1450.7 289 1493.3 296 1536 297.8C1578.7 299.7 1621.3 296.3 1664 296.3C1706.7 296.3 1749.3 299.7 1792 279.8C1834.7 260 1877.3 217 1898.7 195.5L1920 174L1920 0L1898.7 0C1877.3 0 1834.7 0 1792 0C1749.3 0 1706.7 0 1664 0C1621.3 0 1578.7 0 1536 0C1493.3 0 1450.7 0 1408 0C1365.3 0 1322.7 0 1280 0C1237.3 0 1194.7 0 1152 0C1109.3 0 1066.7 0 1024 0C981.3 0 938.7 0 896 0C853.3 0 810.7 0 768 0C725.3 0 682.7 0 640 0C597.3 0 554.7 0 512 0C469.3 0 426.7 0 384 0C341.3 0 298.7 0 256 0C213.3 0 170.7 0 128 0C85.3 0 42.7 0 21.3 0L0 0Z" fill="#111827"></path><path d="M0 357L21.3 364.3C42.7 371.7 85.3 386.3 128 395.3C170.7 404.3 213.3 407.7 256 405.8C298.7 404 341.3 397 384 404.3C426.7 411.7 469.3 433.3 512 438.7C554.7 444 597.3 433 640 438.3C682.7 443.7 725.3 465.3 768 465.3C810.7 465.3 853.3 443.7 896 413C938.7 382.3 981.3 342.7 1024 330.2C1066.7 317.7 1109.3 332.3 1152 366.7C1194.7 401 1237.3 455 1280 465.7C1322.7 476.3 1365.3 443.7 1408 427.3C1450.7 411 1493.3 411 1536 416.5C1578.7 422 1621.3 433 1664 443.8C1706.7 454.7 1749.3 465.3 1792 450.8C1834.7 436.3 1877.3 396.7 1898.7 376.8L1920 357L1920 172L1898.7 193.5C1877.3 215 1834.7 258 1792 277.8C1749.3 297.7 1706.7 294.3 1664 294.3C1621.3 294.3 1578.7 297.7 1536 295.8C1493.3 294 1450.7 287 1408 283.5C1365.3 280 1322.7 280 1280 271C1237.3 262 1194.7 244 1152 229.5C1109.3 215 1066.7 204 1024 213C981.3 222 938.7 251 896 276.3C853.3 301.7 810.7 323.3 768 312.5C725.3 301.7 682.7 258.3 640 252.8C597.3 247.3 554.7 279.7 512 283.3C469.3 287 426.7 262 384 249.5C341.3 237 298.7 237 256 238.7C213.3 240.3 170.7 243.7 128 240C85.3 236.3 42.7 225.7 21.3 220.3L0 215Z" fill="#524a6a"></path><path d="M0 671L21.3 662C42.7 653 85.3 635 128 644C170.7 653 213.3 689 256 699.7C298.7 710.3 341.3 695.7 384 686.7C426.7 677.7 469.3 674.3 512 683.3C554.7 692.3 597.3 713.7 640 717.2C682.7 720.7 725.3 706.3 768 688.3C810.7 670.3 853.3 648.7 896 645.2C938.7 641.7 981.3 656.3 1024 669C1066.7 681.7 1109.3 692.3 1152 703C1194.7 713.7 1237.3 724.3 1280 728C1322.7 731.7 1365.3 728.3 1408 717.7C1450.7 707 1493.3 689 1536 680C1578.7 671 1621.3 671 1664 674.5C1706.7 678 1749.3 685 1792 685C1834.7 685 1877.3 678 1898.7 674.5L1920 671L1920 355L1898.7 374.8C1877.3 394.7 1834.7 434.3 1792 448.8C1749.3 463.3 1706.7 452.7 1664 441.8C1621.3 431 1578.7 420 1536 414.5C1493.3 409 1450.7 409 1408 425.3C1365.3 441.7 1322.7 474.3 1280 463.7C1237.3 453 1194.7 399 1152 364.7C1109.3 330.3 1066.7 315.7 1024 328.2C981.3 340.7 938.7 380.3 896 411C853.3 441.7 810.7 463.3 768 463.3C725.3 463.3 682.7 441.7 640 436.3C597.3 431 554.7 442 512 436.7C469.3 431.3 426.7 409.7 384 402.3C341.3 395 298.7 402 256 403.8C213.3 405.7 170.7 402.3 128 393.3C85.3 384.3 42.7 369.7 21.3 362.3L0 355Z" fill="#aa7eac"></path><path d="M0 789L21.3 778.3C42.7 767.7 85.3 746.3 128 748.2C170.7 750 213.3 775 256 785.7C298.7 796.3 341.3 792.7 384 790.8C426.7 789 469.3 789 512 796.3C554.7 803.7 597.3 818.3 640 818.3C682.7 818.3 725.3 803.7 768 787.3C810.7 771 853.3 753 896 747.7C938.7 742.3 981.3 749.7 1024 764.2C1066.7 778.7 1109.3 800.3 1152 813C1194.7 825.7 1237.3 829.3 1280 831.2C1322.7 833 1365.3 833 1408 816.7C1450.7 800.3 1493.3 767.7 1536 755C1578.7 742.3 1621.3 749.7 1664 760.5C1706.7 771.3 1749.3 785.7 1792 785.7C1834.7 785.7 1877.3 771.3 1898.7 764.2L1920 757L1920 669L1898.7 672.5C1877.3 676 1834.7 683 1792 683C1749.3 683 1706.7 676 1664 672.5C1621.3 669 1578.7 669 1536 678C1493.3 687 1450.7 705 1408 715.7C1365.3 726.3 1322.7 729.7 1280 726C1237.3 722.3 1194.7 711.7 1152 701C1109.3 690.3 1066.7 679.7 1024 667C981.3 654.3 938.7 639.7 896 643.2C853.3 646.7 810.7 668.3 768 686.3C725.3 704.3 682.7 718.7 640 715.2C597.3 711.7 554.7 690.3 512 681.3C469.3 672.3 426.7 675.7 384 684.7C341.3 693.7 298.7 708.3 256 697.7C213.3 687 170.7 651 128 642C85.3 633 42.7 651 21.3 660L0 669Z" fill="#d294c4"></path><path d="M0 919L21.3 906.3C42.7 893.7 85.3 868.3 128 861.2C170.7 854 213.3 865 256 870.5C298.7 876 341.3 876 384 877.8C426.7 879.7 469.3 883.3 512 890.5C554.7 897.7 597.3 908.3 640 908.3C682.7 908.3 725.3 897.7 768 885C810.7 872.3 853.3 857.7 896 852.2C938.7 846.7 981.3 850.3 1024 861.2C1066.7 872 1109.3 890 1152 899C1194.7 908 1237.3 908 1280 911.7C1322.7 915.3 1365.3 922.7 1408 911.8C1450.7 901 1493.3 872 1536 864.8C1578.7 857.7 1621.3 872.3 1664 881.3C1706.7 890.3 1749.3 893.7 1792 886.3C1834.7 879 1877.3 861 1898.7 852L1920 843L1920 755L1898.7 762.2C1877.3 769.3 1834.7 783.7 1792 783.7C1749.3 783.7 1706.7 769.3 1664 758.5C1621.3 747.7 1578.7 740.3 1536 753C1493.3 765.7 1450.7 798.3 1408 814.7C1365.3 831 1322.7 831 1280 829.2C1237.3 827.3 1194.7 823.7 1152 811C1109.3 798.3 1066.7 776.7 1024 762.2C981.3 747.7 938.7 740.3 896 745.7C853.3 751 810.7 769 768 785.3C725.3 801.7 682.7 816.3 640 816.3C597.3 816.3 554.7 801.7 512 794.3C469.3 787 426.7 787 384 788.8C341.3 790.7 298.7 794.3 256 783.7C213.3 773 170.7 748 128 746.2C85.3 744.3 42.7 765.7 21.3 776.3L0 787Z" fill="#aa7eac"></path><path d="M0 1005L21.3 1001.5C42.7 998 85.3 991 128 992.8C170.7 994.7 213.3 1005.3 256 1010.7C298.7 1016 341.3 1016 384 1017.8C426.7 1019.7 469.3 1023.3 512 1025.2C554.7 1027 597.3 1027 640 1021.7C682.7 1016.3 725.3 1005.7 768 998.5C810.7 991.3 853.3 987.7 896 989.3C938.7 991 981.3 998 1024 1005.2C1066.7 1012.3 1109.3 1019.7 1152 1023.3C1194.7 1027 1237.3 1027 1280 1025.2C1322.7 1023.3 1365.3 1019.7 1408 1012.5C1450.7 1005.3 1493.3 994.7 1536 989.3C1578.7 984 1621.3 984 1664 987.5C1706.7 991 1749.3 998 1792 999.8C1834.7 1001.7 1877.3 998.3 1898.7 996.7L1920 995L1920 841L1898.7 850C1877.3 859 1834.7 877 1792 884.3C1749.3 891.7 1706.7 888.3 1664 879.3C1621.3 870.3 1578.7 855.7 1536 862.8C1493.3 870 1450.7 899 1408 909.8C1365.3 920.7 1322.7 913.3 1280 909.7C1237.3 906 1194.7 906 1152 897C1109.3 888 1066.7 870 1024 859.2C981.3 848.3 938.7 844.7 896 850.2C853.3 855.7 810.7 870.3 768 883C725.3 895.7 682.7 906.3 640 906.3C597.3 906.3 554.7 895.7 512 888.5C469.3 881.3 426.7 877.7 384 875.8C341.3 874 298.7 874 256 868.5C213.3 863 170.7 852 128 859.2C85.3 866.3 42.7 891.7 21.3 904.3L0 917Z" fill="#524a6a"></path><path d="M0 1081L21.3 1081C42.7 1081 85.3 1081 128 1081C170.7 1081 213.3 1081 256 1081C298.7 1081 341.3 1081 384 1081C426.7 1081 469.3 1081 512 1081C554.7 1081 597.3 1081 640 1081C682.7 1081 725.3 1081 768 1081C810.7 1081 853.3 1081 896 1081C938.7 1081 981.3 1081 1024 1081C1066.7 1081 1109.3 1081 1152 1081C1194.7 1081 1237.3 1081 1280 1081C1322.7 1081 1365.3 1081 1408 1081C1450.7 1081 1493.3 1081 1536 1081C1578.7 1081 1621.3 1081 1664 1081C1706.7 1081 1749.3 1081 1792 1081C1834.7 1081 1877.3 1081 1898.7 1081L1920 1081L1920 993L1898.7 994.7C1877.3 996.3 1834.7 999.7 1792 997.8C1749.3 996 1706.7 989 1664 985.5C1621.3 982 1578.7 982 1536 987.3C1493.3 992.7 1450.7 1003.3 1408 1010.5C1365.3 1017.7 1322.7 1021.3 1280 1023.2C1237.3 1025 1194.7 1025 1152 1021.3C1109.3 1017.7 1066.7 1010.3 1024 1003.2C981.3 996 938.7 989 896 987.3C853.3 985.7 810.7 989.3 768 996.5C725.3 1003.7 682.7 1014.3 640 1019.7C597.3 1025 554.7 1025 512 1023.2C469.3 1021.3 426.7 1017.7 384 1015.8C341.3 1014 298.7 1014 256 1008.7C213.3 1003.3 170.7 992.7 128 990.8C85.3 989 42.7 996 21.3 999.5L0 1003Z" fill="#111827"></path></svg>