<svg id="visual" viewBox="0 0 1920 1080" width="1920" height="1080" xmlns="http://www.w3.org/2000/svg" xmlns:xlink="http://www.w3.org/1999/xlink" version="1.1"><rect x="0" y="0" width="1920" height="1080" fill="#111827"></rect><defs><linearGradient id="grad1_0" x1="43.8%" y1="0%" x2="100%" y2="100%"><stop offset="14.444444444444446%" stop-color="#d294c4" stop-opacity="1"></stop><stop offset="85.55555555555554%" stop-color="#d294c4" stop-opacity="1"></stop></linearGradient></defs><defs><linearGradient id="grad1_1" x1="43.8%" y1="0%" x2="100%" y2="100%"><stop offset="14.444444444444446%" stop-color="#d294c4" stop-opacity="1"></stop><stop offset="85.55555555555554%" stop-color="#a37aa8" stop-opacity="1"></stop></linearGradient></defs><defs><linearGradient id="grad1_2" x1="43.8%" y1="0%" x2="100%" y2="100%"><stop offset="14.444444444444446%" stop-color="#776189" stop-opacity="1"></stop><stop offset="85.55555555555554%" stop-color="#a37aa8" stop-opacity="1"></stop></linearGradient></defs><defs><linearGradient id="grad1_3" x1="43.8%" y1="0%" x2="100%" y2="100%"><stop offset="14.444444444444446%" stop-color="#776189" stop-opacity="1"></stop><stop offset="85.55555555555554%" stop-color="#4f4868" stop-opacity="1"></stop></linearGradient></defs><defs><linearGradient id="grad1_4" x1="43.8%" y1="0%" x2="100%" y2="100%"><stop offset="14.444444444444446%" stop-color="#2d2f47" stop-opacity="1"></stop><stop offset="85.55555555555554%" stop-color="#4f4868" stop-opacity="1"></stop></linearGradient></defs><defs><linearGradient id="grad1_5" x1="43.8%" y1="0%" x2="100%" y2="100%"><stop offset="14.444444444444446%" stop-color="#2d2f47" stop-opacity="1"></stop><stop offset="85.55555555555554%" stop-color="#111827" stop-opacity="1"></stop></linearGradient></defs><defs><linearGradient id="grad2_0" x1="0%" y1="0%" x2="56.3%" y2="100%"><stop offset="14.444444444444446%" stop-color="#d294c4" stop-opacity="1"></stop><stop offset="85.55555555555554%" stop-color="#d294c4" stop-opacity="1"></stop></linearGradient></defs><defs><linearGradient id="grad2_1" x1="0%" y1="0%" x2="56.3%" y2="100%"><stop offset="14.444444444444446%" stop-color="#a37aa8" stop-opacity="1"></stop><stop offset="85.55555555555554%" stop-color="#d294c4" stop-opacity="1"></stop></linearGradient></defs><defs><linearGradient id="grad2_2" x1="0%" y1="0%" x2="56.3%" y2="100%"><stop offset="14.444444444444446%" stop-color="#a37aa8" stop-opacity="1"></stop><stop offset="85.55555555555554%" stop-color="#776189" stop-opacity="1"></stop></linearGradient></defs><defs><linearGradient id="grad2_3" x1="0%" y1="0%" x2="56.3%" y2="100%"><stop offset="14.444444444444446%" stop-color="#4f4868" stop-opacity="1"></stop><stop offset="85.55555555555554%" stop-color="#776189" stop-opacity="1"></stop></linearGradient></defs><defs><linearGradient id="grad2_4" x1="0%" y1="0%" x2="56.3%" y2="100%"><stop offset="14.444444444444446%" stop-color="#4f4868" stop-opacity="1"></stop><stop offset="85.55555555555554%" stop-color="#2d2f47" stop-opacity="1"></stop></linearGradient></defs><defs><linearGradient id="grad2_5" x1="0%" y1="0%" x2="56.3%" y2="100%"><stop offset="14.444444444444446%" stop-color="#111827" stop-opacity="1"></stop><stop offset="85.55555555555554%" stop-color="#2d2f47" stop-opacity="1"></stop></linearGradient></defs><g transform="translate(1920, 0)"><path d="M0 864C-66.3 776.8 -132.6 689.6 -215.7 663.8C-298.8 638.1 -398.7 673.9 -473.2 651.3C-547.6 628.6 -596.7 547.7 -656.1 476.7C-715.5 405.7 -785.3 344.8 -821.7 267C-858.1 189.2 -861 94.6 -864 0L0 0Z" fill="#1e2437"></path><path d="M0 720C-55.2 647.3 -110.5 574.6 -179.7 553.2C-249 531.8 -332.2 561.6 -394.3 542.7C-456.4 523.9 -497.2 456.4 -546.8 397.2C-596.3 338.1 -654.4 287.3 -684.8 222.5C-715.1 157.7 -717.5 78.8 -720 0L0 0Z" fill="#3d3c58"></path><path d="M0 576C-44.2 517.9 -88.4 459.7 -143.8 442.6C-199.2 425.4 -265.8 449.2 -315.4 434.2C-365.1 419.1 -397.8 365.1 -437.4 317.8C-477 270.5 -523.6 229.8 -547.8 178C-572.1 126.1 -574 63.1 -576 0L0 0Z" fill="#625478"></path><path d="M0 432C-33.1 388.4 -66.3 344.8 -107.8 331.9C-149.4 319.1 -199.3 336.9 -236.6 325.6C-273.8 314.3 -298.3 273.8 -328.1 238.3C-357.8 202.9 -392.7 172.4 -410.9 133.5C-429 94.6 -430.5 47.3 -432 0L0 0Z" fill="#8c6d98"></path><path d="M0 288C-22.1 258.9 -44.2 229.9 -71.9 221.3C-99.6 212.7 -132.9 224.6 -157.7 217.1C-182.5 209.5 -198.9 182.6 -218.7 158.9C-238.5 135.2 -261.8 114.9 -273.9 89C-286 63.1 -287 31.5 -288 0L0 0Z" fill="#ba87b6"></path><path d="M0 144C-11 129.5 -22.1 114.9 -35.9 110.6C-49.8 106.4 -66.4 112.3 -78.9 108.5C-91.3 104.8 -99.4 91.3 -109.4 79.4C-119.3 67.6 -130.9 57.5 -137 44.5C-143 31.5 -143.5 15.8 -144 0L0 0Z" fill="#d294c4"></path></g><g transform="translate(0, 1080)"><path d="M0 -864C99.1 -870.6 198.2 -877.1 267 -821.7C335.8 -766.3 374.2 -648.9 410.3 -564.7C446.4 -480.4 480.2 -429.3 522.6 -379.7C565 -330.1 616 -282.1 674.3 -219.1C732.6 -156.1 798.3 -78 864 0L0 0Z" fill="#1e2437"></path><path d="M0 -720C82.6 -725.5 165.2 -730.9 222.5 -684.8C279.8 -638.6 311.8 -540.8 341.9 -470.6C372 -400.4 400.2 -357.7 435.5 -316.4C470.9 -275.1 513.3 -235.1 561.9 -182.6C610.5 -130.1 665.3 -65 720 0L0 0Z" fill="#3d3c58"></path><path d="M0 -576C66.1 -580.4 132.2 -584.7 178 -547.8C223.8 -510.9 249.4 -432.6 273.5 -376.5C297.6 -320.3 320.2 -286.2 348.4 -253.1C376.7 -220.1 410.7 -188.1 449.5 -146.1C488.4 -104 532.2 -52 576 0L0 0Z" fill="#625478"></path><path d="M0 -432C49.6 -435.3 99.1 -438.6 133.5 -410.9C167.9 -383.2 187.1 -324.5 205.1 -282.3C223.2 -240.2 240.1 -214.6 261.3 -189.9C282.5 -165.1 308 -141.1 337.1 -109.5C366.3 -78 399.2 -39 432 0L0 0Z" fill="#8c6d98"></path><path d="M0 -288C33 -290.2 66.1 -292.4 89 -273.9C111.9 -255.4 124.7 -216.3 136.8 -188.2C148.8 -160.1 160.1 -143.1 174.2 -126.6C188.3 -110 205.3 -94 224.8 -73C244.2 -52 266.1 -26 288 0L0 0Z" fill="#ba87b6"></path><path d="M0 -144C16.5 -145.1 33 -146.2 44.5 -137C56 -127.7 62.4 -108.2 68.4 -94.1C74.4 -80.1 80 -71.5 87.1 -63.3C94.2 -55 102.7 -47 112.4 -36.5C122.1 -26 133.1 -13 144 0L0 0Z" fill="#d294c4"></path></g></svg>